<svg xmlns="http://www.w3.org/2000/svg" width="117.207" height="50" viewBox="0 0 117.207 50">
  <defs>
    <style>
      .cls-1 {
        fill: #f56a75;
      }

      .cls-2, .cls-3 {
        fill: #0e3757;
      }

      .cls-3 {
        opacity: 0.5;
      }
    </style>
  </defs>
  <g id="brand_logo_primary" data-name="brand/logo/primary" transform="translate(0)">
    <g id="big-anchor">
      <path id="XMLID_3_" class="cls-1" d="M21,50a1.05,1.05,0,0,1-.753-.318l-2.254-2.3A19.047,19.047,0,0,1,9.788,43.4a27.5,27.5,0,0,1-6.2-7.169L1.907,38.441a1.053,1.053,0,0,1-.842.421,1.034,1.034,0,0,1-.437-.1,1.086,1.086,0,0,1-.609-1.192L1.58,29.141a1.082,1.082,0,0,1,.611-.789,1.039,1.039,0,0,1,.435-.1,1.053,1.053,0,0,1,.549.155l7.2,4.431a1.094,1.094,0,0,1,.465,1.258,1.061,1.061,0,0,1-1.014.759l-.075,0-2.813-.2c2.42,3.319,6.137,5.145,11.365,5.583V16.116H15.99a2.189,2.189,0,0,1-1.334.457,2.292,2.292,0,0,1,0-4.583,2.2,2.2,0,0,1,1.335.458h2.315V9.136a5,5,0,0,1-2.191-4.151,4.885,4.885,0,1,1,9.769,0,5.005,5.005,0,0,1-2.19,4.151v3.313h2.315a2.2,2.2,0,0,1,1.335-.458,2.292,2.292,0,0,1,0,4.583,2.188,2.188,0,0,1-1.334-.457H23.694V40.24c5.226-.437,8.944-2.263,11.364-5.584l-2.812.2-.075,0a1.061,1.061,0,0,1-1.014-.759,1.094,1.094,0,0,1,.465-1.258l7.2-4.431a1.053,1.053,0,0,1,.549-.155,1.034,1.034,0,0,1,.434.1,1.082,1.082,0,0,1,.612.789l1.562,8.432a1.088,1.088,0,0,1-.609,1.192,1.037,1.037,0,0,1-.437.1,1.051,1.051,0,0,1-.842-.421l-1.68-2.211a27.494,27.494,0,0,1-6.2,7.169,19.042,19.042,0,0,1-8.205,3.983l-2.255,2.3A1.047,1.047,0,0,1,21,50ZM21,3.668a1.317,1.317,0,1,0,1.292,1.318A1.306,1.306,0,0,0,21,3.668Z"/>
    </g>
    <path id="Code" class="cls-2" d="M56.165,21.615a6.46,6.46,0,0,1-5.011-2.057,7.6,7.6,0,0,1-1.867-5.285v-.546A7.89,7.89,0,0,1,51.14,8.374a5.885,5.885,0,0,1,4.606-2.112h.035a5.806,5.806,0,0,1,4.587,1.812,7.129,7.129,0,0,1,1.592,4.861v1.955H52.733l-.028.068a4.682,4.682,0,0,0,1.032,2.884,3.276,3.276,0,0,0,2.632,1.121,7.147,7.147,0,0,0,2.3-.328,7.541,7.541,0,0,0,1.846-.943l1.067,2.174a6.926,6.926,0,0,1-2.215,1.245A9.312,9.312,0,0,1,56.165,21.615ZM55.781,8.928a2.5,2.5,0,0,0-2.023.977,4.839,4.839,0,0,0-.985,2.481l.028.068h5.864v-.342a3.554,3.554,0,0,0-.717-2.3A2.632,2.632,0,0,0,55.781,8.928ZM39.1,21.615a5.051,5.051,0,0,1-4.238-1.983,8.376,8.376,0,0,1-1.517-5.209v-.287a9.8,9.8,0,0,1,1.517-5.708,4.929,4.929,0,0,1,4.266-2.167,4.7,4.7,0,0,1,2.153.486A4.894,4.894,0,0,1,42.93,8.135V0h3.322V21.328H43.463L43.135,19.5a4.909,4.909,0,0,1-1.709,1.58A4.84,4.84,0,0,1,39.1,21.615Zm.875-12.633a2.691,2.691,0,0,0-2.5,1.429,7.568,7.568,0,0,0-.806,3.725v.287a5.977,5.977,0,0,0,.787,3.268,2.763,2.763,0,0,0,2.495,1.217,3.354,3.354,0,0,0,1.784-.451,3.459,3.459,0,0,0,1.2-1.285V10.719a3.527,3.527,0,0,0-1.2-1.279A3.269,3.269,0,0,0,39.976,8.982Zm-15.7,12.633a6.276,6.276,0,0,1-4.99-2.105,8.086,8.086,0,0,1-1.8-5.428V13.8a8.1,8.1,0,0,1,1.8-5.414,6.252,6.252,0,0,1,4.963-2.12,6.227,6.227,0,0,1,4.99,2.12A8.024,8.024,0,0,1,31.063,13.8v.287a8.064,8.064,0,0,1-1.819,5.441A6.235,6.235,0,0,1,24.281,21.615ZM24.254,8.928a2.871,2.871,0,0,0-2.6,1.381,6.619,6.619,0,0,0-.847,3.487v.287a6.66,6.66,0,0,0,.847,3.527,2.87,2.87,0,0,0,2.625,1.354,2.884,2.884,0,0,0,2.6-1.354,6.453,6.453,0,0,0,.876-3.527V13.8a6.37,6.37,0,0,0-.876-3.487A2.893,2.893,0,0,0,24.254,8.928ZM7.848,21.615a7.413,7.413,0,0,1-5.667-2.344,8.493,8.493,0,0,1-2.181-6V9.489a8.586,8.586,0,0,1,2.154-6,7.258,7.258,0,0,1,5.6-2.358,7.969,7.969,0,0,1,5.557,1.852A6.285,6.285,0,0,1,15.286,7.97l-.028.082H12.045a4.327,4.327,0,0,0-1.086-3.13A4.288,4.288,0,0,0,7.752,3.8,3.831,3.831,0,0,0,4.519,5.414a6.616,6.616,0,0,0-1.2,4.046v3.814a6.6,6.6,0,0,0,1.224,4.074,3.944,3.944,0,0,0,3.3,1.614,4.165,4.165,0,0,0,3.13-1.108,4.348,4.348,0,0,0,1.067-3.13h3.2l.027.082a6.292,6.292,0,0,1-1.962,4.915A7.688,7.688,0,0,1,7.848,21.615Z" transform="translate(53.449 6.672)"/>
    <path id="TEST" class="cls-3" d="M41.6,8.778a4,4,0,0,1-2.344-.707,2.178,2.178,0,0,1-.978-1.937l.012-.035h1.371A1.34,1.34,0,0,0,40.2,7.263a2.37,2.37,0,0,0,1.4.383,2.065,2.065,0,0,0,1.23-.319,1.014,1.014,0,0,0,.439-.864,1.106,1.106,0,0,0-.4-.873,3.724,3.724,0,0,0-1.4-.609,5.928,5.928,0,0,1-2.2-.994,1.985,1.985,0,0,1-.771-1.62,2.078,2.078,0,0,1,.853-1.7A3.477,3.477,0,0,1,41.56,0a3.293,3.293,0,0,1,2.259.756,2.262,2.262,0,0,1,.824,1.816l-.012.035H43.266a1.38,1.38,0,0,0-.445-1.064,1.83,1.83,0,0,0-1.272-.407,1.865,1.865,0,0,0-1.2.34,1.082,1.082,0,0,0-.419.878.966.966,0,0,0,.454.809,5.08,5.08,0,0,0,1.5.609,5.022,5.022,0,0,1,2.092,1.02,2.147,2.147,0,0,1,.715,1.658,2.01,2.01,0,0,1-.852,1.7A3.7,3.7,0,0,1,41.6,8.778ZM4,8.655H2.579V1.265H0V.123H6.58V1.265H4V8.654Zm57.445,0H60.024V1.265H57.445V.123h6.58V1.265H61.448V8.653Zm-36,0H19.694V.123h5.712V1.265H21.118V3.674H24.85V4.817H21.118v2.7h4.33V8.653Z" transform="translate(53.182 34.346)"/>
  </g>
</svg>
