<svg xmlns="http://www.w3.org/2000/svg" width="42" height="50" viewBox="0 0 42 50">
  <defs>
    <style>
      .cls-1 {
        fill: #f56a75;
      }
    </style>
  </defs>
  <g id="brand_logo_emblem" data-name="brand/logo/emblem" transform="translate(-4)">
    <g id="big-anchor" transform="translate(4)">
      <path id="XMLID_3_" class="cls-1" d="M21,50a1.05,1.05,0,0,1-.753-.318l-2.254-2.3A19.047,19.047,0,0,1,9.788,43.4a27.5,27.5,0,0,1-6.2-7.169L1.907,38.441a1.053,1.053,0,0,1-.842.421,1.034,1.034,0,0,1-.437-.1,1.086,1.086,0,0,1-.609-1.192L1.58,29.141a1.082,1.082,0,0,1,.611-.789,1.039,1.039,0,0,1,.435-.1,1.053,1.053,0,0,1,.549.155l7.2,4.431a1.094,1.094,0,0,1,.465,1.258,1.061,1.061,0,0,1-1.014.759l-.075,0-2.813-.2c2.42,3.319,6.137,5.145,11.365,5.583V16.116H15.99a2.189,2.189,0,0,1-1.334.457,2.292,2.292,0,0,1,0-4.583,2.2,2.2,0,0,1,1.335.458h2.315V9.136a5,5,0,0,1-2.191-4.151,4.885,4.885,0,1,1,9.769,0,5.005,5.005,0,0,1-2.19,4.151v3.313h2.315a2.2,2.2,0,0,1,1.335-.458,2.292,2.292,0,0,1,0,4.583,2.188,2.188,0,0,1-1.334-.457H23.694V40.24c5.226-.437,8.944-2.263,11.364-5.584l-2.812.2-.075,0a1.061,1.061,0,0,1-1.014-.759,1.094,1.094,0,0,1,.465-1.258l7.2-4.431a1.053,1.053,0,0,1,.549-.155,1.034,1.034,0,0,1,.434.1,1.082,1.082,0,0,1,.612.789l1.562,8.432a1.088,1.088,0,0,1-.609,1.192,1.037,1.037,0,0,1-.437.1,1.051,1.051,0,0,1-.842-.421l-1.68-2.211a27.494,27.494,0,0,1-6.2,7.169,19.042,19.042,0,0,1-8.205,3.983l-2.255,2.3A1.047,1.047,0,0,1,21,50ZM21,3.668a1.317,1.317,0,1,0,1.292,1.318A1.306,1.306,0,0,0,21,3.668Z"/>
    </g>
  </g>
</svg>
